Wavefont-wmin,rmax,amin,smax.ufo
<glyph name="_3" format="2">
	<unicode hex="0103"/>
	<advance width="200"/>
	<outline>
		<component base="cap"/>
		<component base="cap" yOffset="22"/>
		<contour>
			<point x="0" y="4" type="line"/>
			<point x="0" y="26" type="line"/>
			<point x="8" y="26" type="line"/>
			<point x="8" y="4" type="line"/>
		</contour>
	</outline>
</glyph>
<glyph name="_6" format="2">
	<unicode hex="0106"/>
	<unicode hex="0064"/>
	<advance width="200"/>
	<outline>
		<component base="cap"/>
		<component base="cap" yOffset="52"/>
		<contour>
			<point x="0" y="4" type="line"/>
			<point x="0" y="56" type="line"/>
			<point x="8" y="56" type="line"/>
			<point x="8" y="4" type="line"/>
		</contour>
	</outline>
</glyph>
<glyph name="_7" format="2">
	<unicode hex="0107"/>
	<advance width="200"/>
	<outline>
		<component base="cap"/>
		<component base="cap" yOffset="62"/>
		<contour>
			<point x="0" y="4" type="line"/>
			<point x="0" y="66" type="line"/>
			<point x="8" y="66" type="line"/>
			<point x="8" y="4" type="line"/>
		</contour>
	</outline>
</glyph>
<glyph name="_10" format="2">
	<unicode hex="010A"/>
	<unicode hex="0031"/>
	<unicode hex="0066"/>
	<advance width="200"/>
	<outline>
		<component base="cap"/>
		<component base="cap" yOffset="92"/>
		<contour>
			<point x="0" y="4" type="line"/>
			<point x="0" y="96" type="line"/>
			<point x="8" y="96" type="line"/>
			<point x="8" y="4" type="line"/>
		</contour>
	</outline>
</glyph>
<glyph name="_19" format="2">
	<unicode hex="0113"/>
	<advance width="200"/>
	<outline>
		<component base="cap"/>
		<component base="cap" yOffset="182"/>
		<contour>
			<point x="0" y="4" type="line"/>
			<point x="0" y="186" type="line"/>
			<point x="8" y="186" type="line"/>
			<point x="8" y="4" type="line"/>
		</contour>
	</outline>
</glyph>
<glyph name="_22" format="2">
	<unicode hex="0116"/>
	<unicode hex="006C"/>
	<advance width="200"/>
	<outline>
		<component base="cap"/>
		<component base="cap" yOffset="212"/>
		<contour>
			<point x="0" y="4" type="line"/>
			<point x="0" y="216" type="line"/>
			<point x="8" y="216" type="line"/>
			<point x="8" y="4" type="line"/>
		</contour>
	</outline>
</glyph>
<glyph name="_24" format="2">
	<unicode hex="0118"/>
	<unicode hex="006D"/>
	<advance width="200"/>
	<outline>
		<component base="cap"/>
		<component base="cap" yOffset="232"/>
		<contour>
			<point x="0" y="4" type="line"/>
			<point x="0" y="236" type="line"/>
			<point x="8" y="236" type="line"/>
			<point x="8" y="4" type="line"/>
		</contour>
	</outline>
</glyph>
<glyph name="_27" format="2">
	<unicode hex="011B"/>
	<advance width="200"/>
	<outline>
		<component base="cap"/>
		<component base="cap" yOffset="262"/>
		<contour>
			<point x="0" y="4" type="line"/>
			<point x="0" y="266" type="line"/>
			<point x="8" y="266" type="line"/>
			<point x="8" y="4" type="line"/>
		</contour>
	</outline>
</glyph>
<glyph name="_31" format="2">
	<unicode hex="011F"/>
	<advance width="200"/>
	<outline>
		<component base="cap"/>
		<component base="cap" yOffset="302"/>
		<contour>
			<point x="0" y="4" type="line"/>
			<point x="0" y="306" type="line"/>
			<point x="8" y="306" type="line"/>
			<point x="8" y="4" type="line"/>
		</contour>
	</outline>
</glyph>
<glyph name="_35" format="2">
	<unicode hex="0123"/>
	<advance width="200"/>
	<outline>
		<component base="cap"/>
		<component base="cap" yOffset="342"/>
		<contour>
			<point x="0" y="4" type="line"/>
			<point x="0" y="346" type="line"/>
			<point x="8" y="346" type="line"/>
			<point x="8" y="4" type="line"/>
		</contour>
	</outline>
</glyph>
<glyph name="_38" format="2">
	<unicode hex="0126"/>
	<unicode hex="0074"/>
	<advance width="200"/>
	<outline>
		<component base="cap"/>
		<component base="cap" yOffset="372"/>
		<contour>
			<point x="0" y="4" type="line"/>
			<point x="0" y="376" type="line"/>
			<point x="8" y="376" type="line"/>
			<point x="8" y="4" type="line"/>
		</contour>
	</outline>
</glyph>
<glyph name="_42" format="2">
	<unicode hex="012A"/>
	<unicode hex="2584"/>
	<unicode hex="0076"/>
	<advance width="200"/>
	<outline>
		<component base="cap"/>
		<component base="cap" yOffset="412"/>
		<contour>
			<point x="0" y="4" type="line"/>
			<point x="0" y="416" type="line"/>
			<point x="8" y="416" type="line"/>
			<point x="8" y="4" type="line"/>
		</contour>
	</outline>
</glyph>
<glyph name="_46" format="2">
	<unicode hex="012E"/>
	<unicode hex="0078"/>
	<advance width="200"/>
	<outline>
		<component base="cap"/>
		<component base="cap" yOffset="452"/>
		<contour>
			<point x="0" y="4" type="line"/>
			<point x="0" y="456" type="line"/>
			<point x="8" y="456" type="line"/>
			<point x="8" y="4" type="line"/>
		</contour>
	</outline>
</glyph>
<glyph name="_47" format="2">
	<unicode hex="012F"/>
	<advance width="200"/>
	<outline>
		<component base="cap"/>
		<component base="cap" yOffset="462"/>
		<contour>
			<point x="0" y="4" type="line"/>
			<point x="0" y="466" type="line"/>
			<point x="8" y="466" type="line"/>
			<point x="8" y="4" type="line"/>
		</contour>
	</outline>
</glyph>
<glyph name="_50" format="2">
	<unicode hex="0132"/>
	<unicode hex="0035"/>
	<unicode hex="007A"/>
	<advance width="200"/>
	<outline>
		<component base="cap"/>
		<component base="cap" yOffset="492"/>
		<contour>
			<point x="0" y="4" type="line"/>
			<point x="0" y="496" type="line"/>
			<point x="8" y="496" type="line"/>
			<point x="8" y="4" type="line"/>
		</contour>
	</outline>
</glyph>
<glyph name="_56" format="2">
	<unicode hex="0138"/>
	<unicode hex="2585"/>
	<unicode hex="0043"/>
	<advance width="200"/>
	<outline>
		<component base="cap"/>
		<component base="cap" yOffset="552"/>
		<contour>
			<point x="0" y="4" type="line"/>
			<point x="0" y="556" type="line"/>
			<point x="8" y="556" type="line"/>
			<point x="8" y="4" type="line"/>
		</contour>
	</outline>
</glyph>
<glyph name="_59" format="2">
	<unicode hex="013B"/>
	<advance width="200"/>
	<outline>
		<component base="cap"/>
		<component base="cap" yOffset="582"/>
		<contour>
			<point x="0" y="4" type="line"/>
			<point x="0" y="586" type="line"/>
			<point x="8" y="586" type="line"/>
			<point x="8" y="4" type="line"/>
		</contour>
	</outline>
</glyph>
<glyph name="_63" format="2">
	<unicode hex="013F"/>
	<advance width="200"/>
	<outline>
		<component base="cap"/>
		<component base="cap" yOffset="622"/>
		<contour>
			<point x="0" y="4" type="line"/>
			<point x="0" y="626" type="line"/>
			<point x="8" y="626" type="line"/>
			<point x="8" y="4" type="line"/>
		</contour>
	</outline>
</glyph>
<glyph name="_64" format="2">
	<unicode hex="0140"/>
	<unicode hex="0047"/>
	<advance width="200"/>
	<outline>
		<component base="cap"/>
		<component base="cap" yOffset="632"/>
		<contour>
			<point x="0" y="4" type="line"/>
			<point x="0" y="636" type="line"/>
			<point x="8" y="636" type="line"/>
			<point x="8" y="4" type="line"/>
		</contour>
	</outline>
</glyph>
<glyph name="_65" format="2">
	<unicode hex="0141"/>
	<advance width="200"/>
	<outline>
		<component base="cap"/>
		<component base="cap" yOffset="642"/>
		<contour>
			<point x="0" y="4" type="line"/>
			<point x="0" y="646" type="line"/>
			<point x="8" y="646" type="line"/>
			<point x="8" y="4" type="line"/>
		</contour>
	</outline>
</glyph>
<glyph name="_66" format="2">
	<unicode hex="0142"/>
	<unicode hex="0048"/>
	<advance width="200"/>
	<outline>
		<component base="cap"/>
		<component base="cap" yOffset="652"/>
		<contour>
			<point x="0" y="4" type="line"/>
			<point x="0" y="656" type="line"/>
			<point x="8" y="656" type="line"/>
			<point x="8" y="4" type="line"/>
		</contour>
	</outline>
</glyph>
<glyph name="_68" format="2">
	<unicode hex="0144"/>
	<unicode hex="0049"/>
	<advance width="200"/>
	<outline>
		<component base="cap"/>
		<component base="cap" yOffset="672"/>
		<contour>
			<point x="0" y="4" type="line"/>
			<point x="0" y="676" type="line"/>
			<point x="8" y="676" type="line"/>
			<point x="8" y="4" type="line"/>
		</contour>
	</outline>
</glyph>
<glyph name="_71" format="2">
	<unicode hex="0147"/>
	<advance width="200"/>
	<outline>
		<component base="cap"/>
		<component base="cap" yOffset="702"/>
		<contour>
			<point x="0" y="4" type="line"/>
			<point x="0" y="706" type="line"/>
			<point x="8" y="706" type="line"/>
			<point x="8" y="4" type="line"/>
		</contour>
	</outline>
</glyph>
<glyph name="_76" format="2">
	<unicode hex="014C"/>
	<unicode hex="004D"/>
	<advance width="200"/>
	<outline>
		<component base="cap"/>
		<component base="cap" yOffset="752"/>
		<contour>
			<point x="0" y="4" type="line"/>
			<point x="0" y="756" type="line"/>
			<point x="8" y="756" type="line"/>
			<point x="8" y="4" type="line"/>
		</contour>
	</outline>
</glyph>
<glyph name="_81" format="2">
	<unicode hex="0151"/>
	<advance width="200"/>
	<outline>
		<component base="cap"/>
		<component base="cap" yOffset="802"/>
		<contour>
			<point x="0" y="4" type="line"/>
			<point x="0" y="806" type="line"/>
			<point x="8" y="806" type="line"/>
			<point x="8" y="4" type="line"/>
		</contour>
	</outline>
</glyph>
<glyph name="_82" format="2">
	<unicode hex="0152"/>
	<unicode hex="0050"/>
	<advance width="200"/>
	<outline>
		<component base="cap"/>
		<component base="cap" yOffset="812"/>
		<contour>
			<point x="0" y="4" type="line"/>
			<point x="0" y="816" type="line"/>
			<point x="8" y="816" type="line"/>
			<point x="8" y="4" type="line"/>
		</contour>
	</outline>
</glyph>
<glyph name="_88" format="2">
	<unicode hex="0158"/>
	<unicode hex="0053"/>
	<advance width="200"/>
	<outline>
		<component base="cap"/>
		<component base="cap" yOffset="872"/>
		<contour>
			<point x="0" y="4" type="line"/>
			<point x="0" y="876" type="line"/>
			<point x="8" y="876" type="line"/>
			<point x="8" y="4" type="line"/>
		</contour>
	</outline>
</glyph>
<glyph name="_90" format="2">
	<unicode hex="015A"/>
	<unicode hex="0039"/>
	<unicode hex="0054"/>
	<advance width="200"/>
	<outline>
		<component base="cap"/>
		<component base="cap" yOffset="892"/>
		<contour>
			<point x="0" y="4" type="line"/>
			<point x="0" y="896" type="line"/>
			<point x="8" y="896" type="line"/>
			<point x="8" y="4" type="line"/>
		</contour>
	</outline>
</glyph>
<glyph name="_93" format="2">
	<unicode hex="015D"/>
	<advance width="200"/>
	<outline>
		<component base="cap"/>
		<component base="cap" yOffset="922"/>
		<contour>
			<point x="0" y="4" type="line"/>
			<point x="0" y="926" type="line"/>
			<point x="8" y="926" type="line"/>
			<point x="8" y="4" type="line"/>
		</contour>
	</outline>
</glyph>
<glyph name="_94" format="2">
	<unicode hex="015E"/>
	<unicode hex="0056"/>
	<advance width="200"/>
	<outline>
		<component base="cap"/>
		<component base="cap" yOffset="932"/>
		<contour>
			<point x="0" y="4" type="line"/>
			<point x="0" y="936" type="line"/>
			<point x="8" y="936" type="line"/>
			<point x="8" y="4" type="line"/>
		</contour>
	</outline>
</glyph>
<glyph name="_95" format="2">
	<unicode hex="015F"/>
	<advance width="200"/>
	<outline>
		<component base="cap"/>
		<component base="cap" yOffset="942"/>
		<contour>
			<point x="0" y="4" type="line"/>
			<point x="0" y="946" type="line"/>
			<point x="8" y="946" type="line"/>
			<point x="8" y="4" type="line"/>
		</contour>
	</outline>
</glyph>
<glyph name="_98" format="2">
	<unicode hex="0162"/>
	<unicode hex="0058"/>
	<advance width="200"/>
	<outline>
		<component base="cap"/>
		<component base="cap" yOffset="972"/>
		<contour>
			<point x="0" y="4" type="line"/>
			<point x="0" y="976" type="line"/>
			<point x="8" y="976" type="line"/>
			<point x="8" y="4" type="line"/>
		</contour>
	</outline>
</glyph>
<glyph name="_104" format="2">
	<unicode hex="0168"/>
	<advance width="200"/>
	<outline>
		<component base="cap"/>
		<component base="cap" yOffset="1032"/>
		<contour>
			<point x="0" y="4" type="line"/>
			<point x="0" y="1036" type="line"/>
			<point x="8" y="1036" type="line"/>
			<point x="8" y="4" type="line"/>
		</contour>
	</outline>
</glyph>
<glyph name="_108" format="2">
	<unicode hex="016C"/>
	<advance width="200"/>
	<outline>
		<component base="cap"/>
		<component base="cap" yOffset="1072"/>
		<contour>
			<point x="0" y="4" type="line"/>
			<point x="0" y="1076" type="line"/>
			<point x="8" y="1076" type="line"/>
			<point x="8" y="4" type="line"/>
		</contour>
	</outline>
</glyph>
<glyph name="_109" format="2">
	<unicode hex="016D"/>
	<advance width="200"/>
	<outline>
		<component base="cap"/>
		<component base="cap" yOffset="1082"/>
		<contour>
			<point x="0" y="4" type="line"/>
			<point x="0" y="1086" type="line"/>
			<point x="8" y="1086" type="line"/>
			<point x="8" y="4" type="line"/>
		</contour>
	</outline>
</glyph>
<glyph name="_111" format="2">
	<unicode hex="016F"/>
	<advance width="200"/>
	<outline>
		<component base="cap"/>
		<component base="cap" yOffset="1102"/>
		<contour>
			<point x="0" y="4" type="line"/>
			<point x="0" y="1106" type="line"/>
			<point x="8" y="1106" type="line"/>
			<point x="8" y="4" type="line"/>
		</contour>
	</outline>
</glyph>
<glyph name="_112" format="2">
	<unicode hex="0170"/>
	<advance width="200"/>
	<outline>
		<component base="cap"/>
		<component base="cap" yOffset="1112"/>
		<contour>
			<point x="0" y="4" type="line"/>
			<point x="0" y="1116" type="line"/>
			<point x="8" y="1116" type="line"/>
			<point x="8" y="4" type="line"/>
		</contour>
	</outline>
</glyph>
<glyph name="_117" format="2">
	<unicode hex="0175"/>
	<advance width="200"/>
	<outline>
		<component base="cap"/>
		<component base="cap" yOffset="1162"/>
		<contour>
			<point x="0" y="4" type="line"/>
			<point x="0" y="1166" type="line"/>
			<point x="8" y="1166" type="line"/>
			<point x="8" y="4" type="line"/>
		</contour>
	</outline>
</glyph>
<glyph name="_119" format="2">
	<unicode hex="0177"/>
	<advance width="200"/>
	<outline>
		<component base="cap"/>
		<component base="cap" yOffset="1182"/>
		<contour>
			<point x="0" y="4" type="line"/>
			<point x="0" y="1186" type="line"/>
			<point x="8" y="1186" type="line"/>
			<point x="8" y="4" type="line"/>
		</contour>
	</outline>
</glyph>
<glyph name="_120" format="2">
	<unicode hex="0178"/>
	<advance width="200"/>
	<outline>
		<component base="cap"/>
		<component base="cap" yOffset="1192"/>
		<contour>
			<point x="0" y="4" type="line"/>
			<point x="0" y="1196" type="line"/>
			<point x="8" y="1196" type="line"/>
			<point x="8" y="4" type="line"/>
		</contour>
	</outline>
</glyph>
<glyph name="_122" format="2">
	<unicode hex="017A"/>
	<advance width="200"/>
	<outline>
		<component base="cap"/>
		<component base="cap" yOffset="1212"/>
		<contour>
			<point x="0" y="4" type="line"/>
			<point x="0" y="1216" type="line"/>
			<point x="8" y="1216" type="line"/>
			<point x="8" y="4" type="line"/>
		</contour>
	</outline>
</glyph>
<glyph name="_126" format="2">
	<unicode hex="017E"/>
	<advance width="200"/>
	<outline>
		<component base="cap"/>
		<component base="cap" yOffset="1252"/>
		<contour>
			<point x="0" y="4" type="line"/>
			<point x="0" y="1256" type="line"/>
			<point x="8" y="1256" type="line"/>
			<point x="8" y="4" type="line"/>
		</contour>
	</outline>
</glyph>
<glyph name="_3.clip" format="2">
	<advance width="200"/>
	<outline>
		<contour>
			<point x="0" y="23.25"/>
			<point x="6.75" y="30"/>
			<point x="15" y="30" type="curve" smooth="yes"/>
			<point x="-7" y="30" type="line"/>
			<point x="1.25" y="30"/>
			<point x="8" y="23.25"/>
			<point x="8" y="15" type="curve" smooth="yes"/>
			<point x="8" y="15" type="line"/>
			<point x="8" y="6.75"/>
			<point x="1.25" y="0"/>
			<point x="-7" y="0" type="curve" smooth="yes"/>
			<point x="15" y="0" type="line"/>
			<point x="6.75" y="0"/>
			<point x="0" y="6.75"/>
			<point x="0" y="15" type="curve" smooth="yes"/>
			<point x="0" y="15" type="line"/>
		</contour>
	</outline>
</glyph>
